<svg width="144" height="144" viewBox="0 0 144 144" fill="none" xmlns="http://www.w3.org/2000/svg">
<path opacity="0.4" fill-rule="evenodd" clip-rule="evenodd" d="M116.985 71.7084C115.653 60.6024 106.677 46.4062 89.037 46.4062C71.403 46.4062 62.427 60.6024 61.095 71.7084C48.4592 73.0524 39.8672 82.6104 39.8672 95.7864C39.8672 105.266 45.4652 113.948 54.2372 117.95C58.4372 119.654 62.091 119.906 63.897 119.906H114.141C117.249 119.906 120.699 119.21 123.951 117.908C132.609 114.026 138.207 105.344 138.207 95.7864C138.207 82.6104 129.615 73.0524 116.985 71.7084Z" fill="#3B82F6"/>
<path fill-rule="evenodd" clip-rule="evenodd" d="M52.6958 64.3439C53.2618 64.1549 53.7093 63.7133 53.9003 63.1475C57.6648 52.0065 66.9246 40.851 82.0434 38.1435C83.3328 37.9125 84.054 36.4699 83.2878 35.4068C78.717 29.0613 71.3796 24.0942 60.9678 24.0942C44.0699 24.0942 35.1223 37.1213 33.2287 47.9799C33.0846 48.8066 32.4258 49.4529 31.597 49.5849C19.7433 51.4721 11.792 60.7991 11.792 73.4741C11.792 82.9541 17.39 91.6361 26.162 95.6321C27.4174 96.1433 28.6009 96.5009 29.7104 96.7709C30.3442 96.9251 30.866 96.4229 30.866 95.7701C30.866 80.6495 39.5757 68.7275 52.6958 64.3439Z" fill="#3B82F6"/>
</svg>
