<svg width="64" height="64" viewBox="0 0 64 64" fill="none" xmlns="http://www.w3.org/2000/svg">
<path opacity="0.2" fill-rule="evenodd" clip-rule="evenodd" d="M15.1569 23.6201H50.0637C51.3434 23.6201 52.117 24.4201 52.037 25.7001C51.9037 27.6734 51.7437 29.6467 51.5837 31.5934C51.4237 33.4867 50.0904 48.3934 49.9037 50.1534C49.637 52.5001 48.757 54.5267 46.7837 55.9667C45.5037 56.8467 44.0637 57.2734 42.517 57.3001C38.437 57.3534 25.3436 57.3534 22.8636 57.3001C19.1302 57.2467 16.3036 54.9534 15.5836 51.2734C15.3436 50.1001 13.5836 29.9401 13.3969 27.7534C13.3797 27.5297 13.3597 27.303 13.3396 27.0753C13.2974 26.5979 13.2549 26.1162 13.2369 25.6468C13.1836 24.4735 13.9836 23.6201 15.1569 23.6201Z" fill="#FF6600"/>
<path fill-rule="evenodd" clip-rule="evenodd" d="M39.1385 46.0423C39.1385 47.1623 38.2585 48.0423 37.1385 48.0423C36.0451 48.0423 35.1385 47.1623 35.1385 46.0423V34.0156C35.1385 32.9223 36.0451 32.0156 37.1385 32.0156C38.2585 32.0156 39.1385 32.9223 39.1385 34.0156V46.0423ZM30.1251 46.0423C30.1251 47.1623 29.2451 48.0423 28.1251 48.0423C27.0318 48.0423 26.125 47.1623 26.125 46.0423V34.0156C26.125 32.9223 27.0318 32.0156 28.1251 32.0156C29.2451 32.0156 30.1251 32.9223 30.1251 34.0156V46.0423Z" fill="#FF6600"/>
<path fill-rule="evenodd" clip-rule="evenodd" d="M53.1295 14.8537H44.8735C44.1642 14.8537 43.5535 14.3603 43.4015 13.6697L42.6282 10.1443C42.0815 8.09899 40.2175 6.66699 38.0948 6.66699H27.0202C24.8974 6.66699 23.0308 8.09633 22.4628 10.227L21.7108 13.6883C21.5641 14.3683 20.9641 14.8537 20.2681 14.8537H12.2068C10.9081 14.8537 9.85742 15.9043 9.85742 17.2003C9.85742 18.499 10.9081 19.5497 12.2068 19.5497H53.1295C54.4255 19.5497 55.4762 18.499 55.4762 17.2003C55.4762 15.9043 54.4255 14.8537 53.1295 14.8537Z" fill="#FF6600"/>
</svg>
