<svg width="64" height="64" viewBox="0 0 64 64" fill="none" xmlns="http://www.w3.org/2000/svg">
<path opacity="0.2" fill-rule="evenodd" clip-rule="evenodd" d="M15.1559 23.6196H50.0627C51.3424 23.6196 52.116 24.4196 52.036 25.6996C51.9027 27.6729 51.7427 29.6462 51.5827 31.5929C51.4227 33.4862 50.0894 48.3929 49.9027 50.1529C49.636 52.4996 48.756 54.5262 46.7827 55.9662C45.5027 56.8462 44.0627 57.2729 42.516 57.2996C38.436 57.3529 25.3426 57.3529 22.8626 57.2996C19.1292 57.2462 16.3026 54.9529 15.5826 51.2729C15.3426 50.0996 13.5826 29.9396 13.3959 27.7529C13.3787 27.5292 13.3587 27.3025 13.3386 27.0748C13.2965 26.5974 13.254 26.1157 13.2359 25.6463C13.1826 24.473 13.9826 23.6196 15.1559 23.6196Z" fill="#E62020"/>
<path fill-rule="evenodd" clip-rule="evenodd" d="M39.1385 46.0423C39.1385 47.1623 38.2585 48.0423 37.1385 48.0423C36.0451 48.0423 35.1385 47.1623 35.1385 46.0423V34.0156C35.1385 32.9223 36.0451 32.0156 37.1385 32.0156C38.2585 32.0156 39.1385 32.9223 39.1385 34.0156V46.0423ZM30.1251 46.0423C30.1251 47.1623 29.2451 48.0423 28.1251 48.0423C27.0318 48.0423 26.125 47.1623 26.125 46.0423V34.0156C26.125 32.9223 27.0318 32.0156 28.1251 32.0156C29.2451 32.0156 30.1251 32.9223 30.1251 34.0156V46.0423Z" fill="#E62020"/>
<path fill-rule="evenodd" clip-rule="evenodd" d="M53.1295 14.8532H44.8735C44.1642 14.8532 43.5535 14.3598 43.4015 13.6692L42.6282 10.1438C42.0815 8.0985 40.2175 6.6665 38.0948 6.6665H27.0202C24.8974 6.6665 23.0308 8.09584 22.4628 10.2265L21.7108 13.6878C21.5641 14.3678 20.9641 14.8532 20.2681 14.8532H12.2068C10.9081 14.8532 9.85742 15.9038 9.85742 17.1998C9.85742 18.4985 10.9081 19.5492 12.2068 19.5492H53.1295C54.4255 19.5492 55.4762 18.4985 55.4762 17.1998C55.4762 15.9038 54.4255 14.8532 53.1295 14.8532Z" fill="#E62020"/>
</svg>
