<svg width="64" height="64" viewBox="0 0 64 64" fill="none" xmlns="http://www.w3.org/2000/svg">
<path opacity="0.2" d="M6.66669 32.0003C6.66669 18.0082 18.0079 6.66699 32 6.66699C45.9923 6.66699 57.3334 18.0082 57.3334 32.0003C57.3334 45.9899 45.9923 57.3337 32 57.3337C18.0078 57.3337 6.66669 45.9899 6.66669 32.0003Z" fill="#3B82F6"/>
<path d="M34 23.208C34 22.1034 33.1045 21.208 32 21.208C30.8955 21.208 30 22.1034 30 23.208V30.0029H23.2002C22.0956 30.0029 21.2002 30.8981 21.2002 32.0029C21.2002 33.1074 22.0956 34.0029 23.2002 34.0029H30V40.789C30 41.8936 30.8955 42.789 32 42.789C33.1045 42.789 34 41.8936 34 40.789V34.0029H40.7992C41.904 34.0029 42.7992 33.1074 42.7992 32.0029C42.7992 30.8981 41.904 30.0029 40.7992 30.0029H34V23.208Z" fill="#3B82F6"/>
</svg>
