<svg width="64" height="64" viewBox="0 0 64 64" fill="none" xmlns="http://www.w3.org/2000/svg">
<path opacity="0.2" fill-rule="evenodd" clip-rule="evenodd" d="M32.0013 6.6665C18.0333 6.6665 6.66797 18.0292 6.66797 31.9998C6.66797 45.9678 18.0333 57.3332 32.0013 57.3332C45.9693 57.3332 57.3346 45.9678 57.3346 31.9998C57.3346 18.0292 45.9693 6.6665 32.0013 6.6665Z" fill="#E62020"/>
<path fill-rule="evenodd" clip-rule="evenodd" d="M39.6433 39.637C39.254 40.0263 38.742 40.2236 38.23 40.2236C37.7153 40.2236 37.206 40.0263 36.814 39.637L31.998 34.8183L27.1953 39.621C26.414 40.4023 25.1473 40.4023 24.366 39.621C23.5873 38.8396 23.5873 37.5756 24.366 36.7943L29.1686 31.9916L24.3633 27.1836C23.582 26.4023 23.582 25.1383 24.3633 24.357C25.1447 23.5757 26.4087 23.5757 27.19 24.357L31.9953 29.1623L36.8007 24.3597C37.582 23.5783 38.846 23.5783 39.6273 24.3597C40.4086 25.1383 40.4086 26.405 39.6273 27.1863L34.8246 31.9916L39.6433 36.8076C40.4247 37.589 40.4247 38.8556 39.6433 39.637Z" fill="#E62020"/>
</svg>
