<svg width="120" height="120" viewBox="0 0 120 120" fill="none" xmlns="http://www.w3.org/2000/svg">
<path d="M59.7451 72.6981C76.9011 72.6981 91.5499 75.4179 91.5499 86.3018C91.5499 97.1811 76.9951 100 59.7451 100C42.5892 100 27.9404 97.2802 27.9404 86.4008C27.9404 75.517 42.4952 72.6981 59.7451 72.6981ZM87.1754 66.1444C93.7342 66.0228 100.785 66.9234 103.391 67.5628C108.911 68.6481 112.542 70.8636 114.046 74.0832C115.318 76.7265 115.318 79.7931 114.046 82.4319C111.745 87.4257 104.327 89.0288 101.444 89.4431C100.848 89.5331 100.369 89.0153 100.432 88.4164C101.905 74.5786 90.1884 68.0177 87.1574 66.5091C87.0276 66.4416 87.0008 66.338 87.0142 66.275C87.0231 66.2299 87.0769 66.1579 87.1754 66.1444ZM32.828 66.1462C32.9265 66.1597 32.9757 66.2318 32.9847 66.2723C32.9981 66.3398 32.9713 66.4389 32.8459 66.5109C29.8105 68.0195 18.0941 74.5804 19.5671 88.4137C19.6298 89.0171 19.1552 89.5304 18.5598 89.4449C15.6766 89.0306 8.25815 87.4275 5.95696 82.4337C4.68101 79.7904 4.68101 76.7283 5.95696 74.085C7.46124 70.8654 11.0876 68.6499 16.6078 67.5601C19.2179 66.9252 26.2647 66.0246 32.828 66.1462ZM59.7451 20C71.4257 20 80.7916 29.4113 80.7916 41.1643C80.7916 52.9127 71.4257 62.333 59.7451 62.333C48.0646 62.333 38.6987 52.9127 38.6987 41.1643C38.6987 29.4113 48.0646 20 59.7451 20ZM88.317 23.5295C99.5991 23.5295 108.459 34.2062 105.442 46.0987C103.405 54.1051 96.0309 59.4232 87.8156 59.207C86.9918 59.1845 86.1815 59.1079 85.398 58.9729C84.8294 58.8738 84.5429 58.2299 84.8652 57.7525C87.9991 53.1144 89.7855 47.5352 89.7855 41.5461C89.7855 35.2959 87.8335 29.469 84.4444 24.6913C84.3369 24.5427 84.2563 24.313 84.3638 24.1419C84.4533 24.0023 84.619 23.9302 84.7757 23.8942C85.9173 23.6601 87.0903 23.5295 88.317 23.5295ZM31.6796 23.529C32.9063 23.529 34.0793 23.6596 35.2254 23.8938C35.3777 23.9298 35.5478 24.0063 35.6373 24.1414C35.7403 24.3126 35.6642 24.5422 35.5567 24.6908C32.1676 29.4685 30.2157 35.2955 30.2157 41.5457C30.2157 47.5347 32.002 53.114 35.1359 57.7521C35.4582 58.2294 35.1717 58.8733 34.6031 58.9724C33.8152 59.112 33.0093 59.184 32.1855 59.2066C23.9702 59.4227 16.5966 54.1046 14.5595 46.0982C11.5376 34.2057 20.3976 23.529 31.6796 23.529Z" fill="#22B789"/>
</svg>
