<svg width="24" height="24" viewBox="0 0 24 24" fill="none" xmlns="http://www.w3.org/2000/svg">
<path fill-rule="evenodd" clip-rule="evenodd" d="M21.499 11.5223C21.5555 8.2726 17.5644 3.03418 12.6996 3.12369C12.3201 3.13829 12.0156 3.44379 12.0029 3.82325C11.9854 5.50842 11.9893 8.34362 11.9952 10.2535C11.9981 11.3617 12.8893 12.2559 13.9975 12.2627C16.0475 12.2773 19.1727 12.289 20.8725 12.2462C21.2286 12.1878 21.4922 11.8833 21.499 11.5223Z" stroke="#18181C" stroke-opacity="0.4" stroke-width="1.5" stroke-linecap="round" stroke-linejoin="round"/>
<path d="M8.82094 3.90479C7.48627 4.50261 6.31738 5.41667 5.41545 6.56787C4.51351 7.71907 3.90569 9.07271 3.6446 10.5117C3.3835 11.9506 3.47699 13.4315 3.91699 14.8262C4.35698 16.2209 5.13021 17.4873 6.16977 18.516C7.20932 19.5446 8.48388 20.3044 9.88314 20.7296C11.2824 21.1548 12.7642 21.2327 14.2003 20.9564C15.6364 20.6801 16.9836 20.058 18.1252 19.1439C19.2668 18.2299 20.1684 17.0514 20.7521 15.7105" stroke="#18181C" stroke-opacity="0.4" stroke-width="1.5" stroke-linecap="round" stroke-linejoin="round"/>
</svg>
