<svg width="24" height="24" viewBox="0 0 24 24" fill="none" xmlns="http://www.w3.org/2000/svg">
<path d="M12 21.6211C16.971 21.6211 21 17.5911 21 12.6211C21 7.65009 16.971 3.62109 12 3.62109C7.029 3.62109 3 7.65009 3 12.6211C3 17.5911 7.029 21.6211 12 21.6211Z" stroke="#18181C" stroke-width="1.5" stroke-linecap="round" stroke-linejoin="round"/>
<path fill-rule="evenodd" clip-rule="evenodd" d="M16.1319 12.6202C16.1319 14.9002 14.2839 16.7482 12.0039 16.7482C9.72396 16.7482 7.875 14.9002 7.875 12.6202C7.875 10.3402 9.72396 8.49219 12.0039 8.49219C14.2839 8.49219 16.1319 10.3402 16.1319 12.6202Z" stroke="#18181C" stroke-width="1.5" stroke-linecap="round" stroke-linejoin="round"/>
<path d="M9.08472 15.5352L5.63672 18.9832" stroke="#18181C" stroke-width="1.5" stroke-linecap="round" stroke-linejoin="round"/>
<path d="M14.918 15.5391L18.364 18.9851" stroke="#18181C" stroke-width="1.5" stroke-linecap="round" stroke-linejoin="round"/>
<path d="M5.63672 6.25781L9.08374 9.7048" stroke="#18181C" stroke-width="1.5" stroke-linecap="round" stroke-linejoin="round"/>
<path d="M14.918 9.70282L18.363 6.25781" stroke="#18181C" stroke-width="1.5" stroke-linecap="round" stroke-linejoin="round"/>
</svg>
